# xmcd CD database file
#
# Track frame offsets:
#	150
#	13646
#	24024
#	36312
#	45617
#	59057
#	71083
#	81381
#	93310
#	105311
#	118243
#	130576
#	143724
#	156483
#	169782
#	182154
#	195058
#	206848
#	218405
#	229199
#	239291
#	255449
#	265709
#
# Disc length: 3769 seconds
#
# Revision: 1
# Processed by: cddbd v1.5.2PL0 Copyright (c) Steve Scherf et al.
# Submitted via: CDex 1.95
#
DISCID=390eb717
DTITLE=Dave Dudley - King Of Country Music-Vol 2
DYEAR=2005
DGENRE=Country
TTITLE0=Dave Duley - A Friend Named Wine
TTITLE1=Dave Duley - Been Around The Horn
TTITLE2=Dave Duley - Big Stuff
TTITLE3=Dave Duley - Comin Down
TTITLE4=Dave Duley - Counterfeit Cowboy
TTITLE5=Dave Duley - Denims And Diamonds
TTITLE6=Dave Duley - Dont Need The Rain
TTITLE7=Dave Duley - Farewell Two Arms
TTITLE8=Dave Duley - Fireball Rolled A Seven
TTITLE9=Dave Duley - Have It Your Way
TTITLE10=Dave Duley - Homer And Cole
TTITLE11=Dave Duley - I Can't Remember You
TTITLE12=Dave Duley - I Do
TTITLE13=Dave Duley - I Have Been Known To Not Go Home
TTITLE14=Dave Duley - If I Could Change Marys Mind
TTITLE15=Dave Duley - Let Me Dream
TTITLE16=Dave Duley - Mary Lou, You Took The Party With You
TTITLE17=Dave Duley - My Home Town Made A Change
TTITLE18=Dave Duley - My Pick Em Up
TTITLE19=Dave Duley - Alligator Man
TTITLE20=Dave Duley - Seventeen-Seventy-Six
TTITLE21=Dave Duley - Under Cover Of The Night
TTITLE22=Dave Duley - Where Does A little Boy Go
EXTD=YEAR: 2005
EXTT0=
EXTT1=
EXTT2=
EXTT3=
EXTT4=
EXTT5=
EXTT6=
EXTT7=
EXTT8=
EXTT9=
EXTT10=
EXTT11=
EXTT12=
EXTT13=
EXTT14=
EXTT15=
EXTT16=
EXTT17=
EXTT18=
EXTT19=
EXTT20=
EXTT21=
EXTT22=
PLAYORDER=
